<?xml version="1.0" standalone="no"?>
<!DOCTYPE svg PUBLIC "-//W3C//DTD SVG 20010904//EN"
 "http://www.w3.org/TR/2001/REC-SVG-20010904/DTD/svg10.dtd">
<svg version="1.0" xmlns="http://www.w3.org/2000/svg"
 width="260.000000pt" height="260.000000pt" viewBox="0 0 260.000000 260.000000"
 preserveAspectRatio="xMidYMid meet">
<metadata>
Created by potrace 1.11, written by Peter Selinger 2001-2013
</metadata>
<g transform="translate(0.000000,260.000000) scale(0.100000,-0.100000)"
fill="#000000" stroke="none">
<path d="M415 2372 c-99 -34 -174 -117 -195 -215 -8 -37 -10 -301 -8 -887 3
-830 3 -835 24 -881 28 -60 93 -125 153 -153 46 -21 47 -21 911 -21 864 0 865
0 911 21 60 28 125 93 153 153 21 46 21 47 21 911 0 864 0 865 -21 911 -28 60
-93 125 -153 153 -46 21 -50 21 -896 23 -786 2 -854 1 -900 -15z m589 -484
c55 -16 138 -99 154 -154 28 -94 8 -169 -63 -239 -101 -102 -229 -102 -330 0
-102 101 -102 229 0 330 70 71 145 90 239 63z m836 -9 c60 -27 88 -54 116
-114 42 -88 25 -204 -39 -274 -36 -39 -115 -71 -177 -71 -62 0 -141 32 -177
71 -82 89 -82 249 0 338 61 66 190 90 277 50z m-836 -761 c55 -16 138 -99 154
-154 28 -94 8 -169 -63 -239 -101 -102 -229 -102 -330 0 -102 101 -102 229 0
330 70 71 145 90 239 63z m810 0 c86 -26 166 -136 166 -228 0 -124 -116 -240
-240 -240 -92 0 -202 80 -228 166 -28 94 -8 169 63 239 70 71 145 90 239 63z"/>
</g>
</svg>
